<?xml version="1.0" encoding="utf-8"?>
<!-- Generator: Adobe Illustrator 27.5.0, SVG Export Plug-In . SVG Version: 6.00 Build 0)  -->
<svg version="1.1" xmlns="http://www.w3.org/2000/svg" xmlns:xlink="http://www.w3.org/1999/xlink" x="0px" y="0px"
	 viewBox="0 0 1122 1122" style="enable-background:new 0 0 1122 1122;" xml:space="preserve">
<g id="Bg">
	<rect id="XMLID_340_" x="0" y="0" style="fill:#FFF6E3;" width="1122" height="1122"/>
</g>
<g id="Layer_2">
	<g id="XMLID_1573_">
		<g id="XMLID_2181_">
			
				<ellipse id="XMLID_2182_" transform="matrix(0.7071 -0.7071 0.7071 0.7071 -221.4387 558.5627)" style="fill:#A4A14F;" cx="563.525" cy="546.582" rx="319.626" ry="319.626"/>
		</g>
		<g id="XMLID_1470_">
			<g id="XMLID_1516_">
				<g id="XMLID_1521_">
					<path id="XMLID_1522_" style="fill:#E0DBC0;" d="M747.139,680.428h-494.8c-1.62,0-2.945-1.326-2.945-2.945v-304.32
						c0-1.62,1.326-2.946,2.945-2.946h494.8c1.62,0,2.945,1.326,2.945,2.946v304.32
						C750.085,679.103,748.759,680.428,747.139,680.428z"/>
				</g>
				<g id="XMLID_1517_">
					<path id="XMLID_1518_" style="fill:#C45F43;" d="M741.648,691.072H257.83c-10.467,0-18.982-8.595-18.982-19.159V378.732
						c0-10.564,8.515-19.159,18.982-19.159h483.818c10.466,0,18.982,8.595,18.982,19.159v293.182
						C760.63,682.477,752.114,691.072,741.648,691.072z M259.939,669.784h479.599V380.861H259.939V669.784z"/>
				</g>
			</g>
			<g id="XMLID_1514_">
				<path id="XMLID_1515_" style="fill:#433930;" d="M689.185,449.382H532.746c-5.033,0-5.041,8.931,0,8.931h156.439
					C694.218,458.313,694.226,449.382,689.185,449.382z"/>
			</g>
			<g id="XMLID_1512_">
				<path id="XMLID_1513_" style="fill:#433930;" d="M689.185,490.946H532.746c-5.033,0-5.041,8.931,0,8.931h156.439
					C694.218,499.877,694.226,490.946,689.185,490.946z"/>
			</g>
			<g id="XMLID_1510_">
				<path id="XMLID_1511_" style="fill:#433930;" d="M689.185,527.082H532.746c-5.033,0-5.041,8.931,0,8.931h156.439
					C694.218,536.013,694.226,527.082,689.185,527.082z"/>
			</g>
			<g id="XMLID_1508_">
				<path id="XMLID_1509_" style="fill:#433930;" d="M689.185,557.765H532.746c-5.033,0-5.041,8.931,0,8.931h156.439
					C694.218,566.696,694.226,557.765,689.185,557.765z"/>
			</g>
			<g id="XMLID_1506_">
				<path id="XMLID_1507_" style="fill:#433930;" d="M689.185,580.411H532.746c-5.033,0-5.041,8.931,0,8.931h156.439
					C694.218,589.342,694.226,580.411,689.185,580.411z"/>
			</g>
			<g id="XMLID_1504_">
				
					<ellipse id="XMLID_1505_" transform="matrix(0.7071 -0.7071 0.7071 0.7071 -153.902 631.6132)" style="fill:#433930;" cx="685.474" cy="501.583" rx="103.226" ry="103.226"/>
			</g>
			<g id="XMLID_1502_">
				
					<ellipse id="XMLID_1503_" transform="matrix(0.7071 -0.7071 0.7071 0.7071 -155.8614 624.1741)" style="fill:#037C75;" cx="675.514" cy="500.228" rx="103.226" ry="103.226"/>
			</g>
			<g id="XMLID_1500_">
				<path id="XMLID_1501_" style="fill:#433930;" d="M805.933,837.061c0.115-15.245-0.329-35.311-2.028-60.641
					c-4.603-68.637-78.78-155.864-78.78-155.864h-12.331h-39.661h-12.331c0,0-74.177,87.227-78.78,155.864
					c-1.699,25.329-2.143,45.395-2.028,60.64c-0.004,0.131-0.018,0.26-0.018,0.392v46.464c0,6.121,4.443,11.129,9.873,11.129
					h206.229c5.43,0,9.873-5.008,9.873-11.129v-46.464C805.951,837.32,805.937,837.191,805.933,837.061z"/>
			</g>
			<g id="XMLID_1498_">
				<path id="XMLID_1499_" style="fill:#037C75;" d="M797.024,837.061c0.115-15.245-0.329-35.311-2.028-60.641
					c-4.603-68.637-78.78-155.864-78.78-155.864h-12.331h-39.66h-12.332c0,0-74.177,87.227-78.78,155.864
					c-1.699,25.329-2.143,45.395-2.028,60.64c-0.004,0.131-0.018,0.26-0.018,0.392v46.464c0,6.121,4.443,11.129,9.873,11.129
					h206.229c5.43,0,9.873-5.008,9.873-11.129v-46.464C797.042,837.32,797.028,837.191,797.024,837.061z"/>
			</g>
			<g id="XMLID_1494_">
				<path id="XMLID_1495_" style="fill:#433930;" d="M415.495,621.29c-57.074,0.003-103.821-46.104-104.459-103.319
					c-0.642-57.611,45.705-105.002,103.315-105.646c27.918-0.228,54.266,10.265,74.218,29.781
					c19.953,19.513,31.113,45.629,31.423,73.536c0.642,57.609-45.705,105-103.315,105.643
					C416.284,621.287,415.888,621.29,415.495,621.29z M415.544,424.259c-0.354,0-0.705,0.003-1.061,0.009
					c-51.025,0.567-92.075,42.544-91.507,93.568c0.566,50.676,41.973,91.509,92.52,91.511c0.351,0,0.697,0,1.05-0.006
					c51.025-0.567,92.075-42.541,91.507-93.566c-0.275-24.72-10.159-47.852-27.833-65.134
					C462.8,433.605,439.867,424.259,415.544,424.259z"/>
			</g>
			<g id="XMLID_1492_">
				
					<rect id="XMLID_1493_" x="411.918" y="418.311" transform="matrix(0.9999 -0.0111 0.0111 0.9999 -5.6875 4.6163)" style="fill:#433930;" width="3.582" height="194.409"/>
			</g>
			<g id="XMLID_1490_">
				
					<rect id="XMLID_1491_" x="455.211" y="443.948" transform="matrix(0.5137 0.858 -0.858 0.5137 647.255 -151.197)" style="fill:#433930;" width="3.582" height="102.826"/>
			</g>
			<g id="XMLID_1488_">
				
					<rect id="XMLID_1489_" x="422.347" y="490.991" transform="matrix(-0.5687 0.8225 -0.8225 -0.5687 1077.9302 439.7038)" style="fill:#433930;" width="2.687" height="22.912"/>
			</g>
			<g id="XMLID_1486_">
				
					<rect id="XMLID_1487_" x="429.997" y="468.321" transform="matrix(-0.5688 0.8225 -0.8225 -0.5688 1079.1447 412.8719)" style="fill:#433930;" width="2.687" height="42.014"/>
			</g>
			<g id="XMLID_1484_">
				
					<rect id="XMLID_1485_" x="437.161" y="445.244" transform="matrix(-0.5686 0.8226 -0.8226 -0.5686 1078.8286 384.8654)" style="fill:#433930;" width="2.687" height="60.103"/>
			</g>
			<g id="XMLID_1482_">
				
					<rect id="XMLID_1483_" x="444.332" y="421.6" transform="matrix(-0.5687 0.8225 -0.8225 -0.5687 1078.5438 357.0013)" style="fill:#433930;" width="2.687" height="79.335"/>
			</g>
			<g id="XMLID_1480_">
				
					<rect id="XMLID_1481_" x="451.8" y="400.012" transform="matrix(-0.5687 0.8225 -0.8225 -0.5687 1078.8898 329.1746)" style="fill:#433930;" width="2.687" height="94.865"/>
			</g>
			<g id="XMLID_1473_">
				<g id="XMLID_1478_">
					
						<rect id="XMLID_1479_" x="481.807" y="502.971" transform="matrix(-0.6431 0.7658 -0.7658 -0.6431 1271.5807 646.6946)" style="fill:#B65B3C;" width="6.543" height="233.434"/>
				</g>
				<g id="XMLID_1474_">
					<path id="XMLID_1475_" style="fill:#B65B3C;" d="M572.536,699.246L391.59,547.314l6.033-7.184l1.087,0.913l179.858,151.018
						L572.536,699.246z M395.588,546.967l176.599,148.281l2.382-2.837L397.97,544.129L395.588,546.967z"/>
				</g>
			</g>
			<g id="XMLID_1471_">
				<path id="XMLID_1472_" style="fill:#037C75;" d="M659.184,748.199l-27.75,33.049c-2.945,3.507-8.223,3.967-11.73,1.022
					l-126.565-106.27c-3.507-2.945-3.967-8.223-1.023-11.73l27.749-33.049c2.945-3.507,8.224-3.967,11.731-1.023l126.565,106.27
					C661.668,739.413,662.128,744.692,659.184,748.199z"/>
			</g>
		</g>
	</g>
</g>
</svg>
